<?xml version="1.0" encoding="UTF-8"?>
<svg width="992px" height="320px" viewBox="0 0 992 320" version="1.1" xmlns="http://www.w3.org/2000/svg" xmlns:xlink="http://www.w3.org/1999/xlink">
    <!-- Generator: Sketch 50.2 (55047) - http://www.bohemiancoding.com/sketch -->
    <title>Stortingsbygningen</title>
    <desc>Created with Sketch.</desc>
    <defs></defs>
    <g id="Page-1" stroke="none" stroke-width="1" fill="none" fill-rule="evenodd">
        <g id="Stortingsbygningen" transform="translate(1.000000, 1.000000)" fill="#000000" stroke="#FFFFFF">
            <polygon id="Rectangle" points="0 25 82.5 0 165 25 165 297 0 318"></polygon>
            <polygon id="Rectangle-Copy" points="825 25 907.5 0 990 25 990 318 825 297"></polygon>
            <polygon id="Rectangle-2" points="165 26 284 131.90625 284 282.191406 165 297"></polygon>
            <polygon id="Rectangle-2-Copy" transform="translate(765.500000, 161.500000) scale(-1, 1) translate(-765.500000, -161.500000) " points="706 26 825 131.90625 825 282 706 297"></polygon>
            <polygon id="Rectangle-3" points="284 132 706 132 706 282.277344 679.378906 279.40625 313.496094 279.40625 284 282.277344"></polygon>
            <path d="M643,75 L643,279 L348,279 L348,75 C348,42.9674845 414.037999,17 495.5,17 C576.962001,17 643,42.9674845 643,75 Z" id="Combined-Shape"></path>
        </g>
    </g>
</svg>