<svg xmlns="http://www.w3.org/2000/svg" viewBox="0 0 784 586">
  <title>
    stortingssalen
  </title>
  <desc>
    Created with Sketch.
  </desc>
  <g id="stortingssalen" fill="none" fill-rule="evenodd">
    <g id="members" fill="#CCC" transform="translate(-2)">
      <path id="seat001" d="M186.5 568.7V586H159v-17.3a13.7 13.7 0 0 1 27.5 0z" transform="rotate(-90 172.7 570.5)"/>
      <path id="seat002" d="M148 568.7V586h-27.5v-17.3a13.7 13.7 0 0 1 27.5 0z" transform="rotate(-90 134.2 570.5)"/>
      <path id="seat003" d="M109.5 568.7V586H82v-17.3a13.7 13.7 0 0 1 27.5 0z" transform="rotate(-90 95.7 570.5)"/>
      <path id="seat004" d="M71 568.7V586H43.5v-17.3a13.7 13.7 0 0 1 27.5 0z" transform="rotate(-90 57.2 570.5)"/>
      <path id="seat005" d="M32.5 568.7V586H5v-17.3a13.7 13.7 0 0 1 27.5 0z" transform="rotate(-90 18.7 570.5)"/>
      <path id="seat006" d="M186.5 520.7V538H159v-17.3a13.7 13.7 0 0 1 27.5 0z" transform="rotate(-90 172.7 522.5)"/>
      <path id="seat007" d="M147.5 520.7V538H120v-17.3a13.7 13.7 0 0 1 27.5 0z" transform="rotate(-90 133.7 522.5)"/>
      <path id="seat008" d="M109.5 520.7V538H82v-17.3a13.7 13.7 0 0 1 27.5 0z" transform="rotate(-90 95.7 522.5)"/>
      <path id="seat009" d="M70.5 520.7V538H43v-17.3a13.7 13.7 0 0 1 27.5 0z" transform="rotate(-90 56.7 522.5)"/>
      <path id="seat010" d="M32.5 520.7V538H5v-17.3a13.7 13.7 0 0 1 27.5 0z" transform="rotate(-90 18.7 522.5)"/>
      <path id="seat011" d="M186.5 490.7V508H159v-17.3a13.7 13.7 0 0 1 27.5 0z" transform="rotate(-90 172.7 492.5)"/>
      <path id="seat012" d="M147.5 490.7V508H120v-17.3a13.7 13.7 0 0 1 27.5 0z" transform="rotate(-90 133.7 492.5)"/>
      <path id="seat013" d="M109.5 490.7V508H82v-17.3a13.7 13.7 0 0 1 27.5 0z" transform="rotate(-90 95.7 492.5)"/>
      <path id="seat014" d="M70.5 490.7V508H43v-17.3a13.7 13.7 0 0 1 27.5 0z" transform="rotate(-90 56.7 492.5)"/>
      <path id="seat015" d="M32.5 490.7V508H5v-17.3a13.7 13.7 0 0 1 27.5 0z" transform="rotate(-90 18.7 492.5)"/>
      <path id="seat016" d="M186.5 446.7V464H159v-17.3a13.7 13.7 0 0 1 27.5 0z" transform="rotate(-90 172.7 448.5)"/>
      <path id="seat017" d="M147.5 446.7V464H120v-17.3a13.7 13.7 0 0 1 27.5 0z" transform="rotate(-90 133.7 448.5)"/>
      <path id="seat018" d="M109.5 446.7V464H82v-17.3a13.7 13.7 0 0 1 27.5 0z" transform="rotate(-90 95.7 448.5)"/>
      <path id="seat019" d="M70.5 446.7V464H43v-17.3a13.7 13.7 0 0 1 27.5 0z" transform="rotate(-90 56.7 448.5)"/>
      <path id="seat020" d="M32.5 446.7V464H5v-17.3a13.7 13.7 0 0 1 27.5 0z" transform="rotate(-90 18.7 448.5)"/>
      <path id="seat021" d="M186.5 416.7V434H159v-17.3a13.7 13.7 0 0 1 27.5 0z" transform="rotate(-90 172.7 418.5)"/>
      <path id="seat022" d="M147.5 416.7V434H120v-17.3a13.7 13.7 0 0 1 27.5 0z" transform="rotate(-90 133.7 418.5)"/>
      <path id="seat023" d="M109.5 416.7V434H82v-17.3a13.7 13.7 0 0 1 27.5 0z" transform="rotate(-90 95.7 418.5)"/>
      <path id="seat024" d="M70.5 416.7V434H43v-17.3a13.7 13.7 0 0 1 27.5 0z" transform="rotate(-90 56.7 418.5)"/>
      <path id="seat025" d="M32.5 416.7V434H5v-17.3a13.7 13.7 0 0 1 27.5 0z" transform="rotate(-90 18.7 418.5)"/>
      <path id="seat026" d="M109.4 372.2v17.3H81.9v-17.3a13.7 13.7 0 1 1 27.5 0z" transform="rotate(-81 95.7 374)"/>
      <path id="seat027" d="M69.5 380.7V398H42v-17.3a13.7 13.7 0 0 1 27.5 0z" transform="rotate(-81 55.7 382.5)"/>
      <path id="seat028" d="M31.5 374.7V392H4v-17.3a13.7 13.7 0 0 1 27.5 0z" transform="rotate(-81 17.7 376.5)"/>
      <path id="seat029" d="M74.5 351.7V369H47v-17.3a13.7 13.7 0 0 1 27.5 0z" transform="rotate(-81 60.7 353.5)"/>
      <path id="seat030" d="M36.5 345.7V363H9v-17.3a13.7 13.7 0 0 1 27.5 0z" transform="rotate(-81 22.7 347.5)"/>
      <path id="seat031" d="M193.5 362.7V380H166v-17.3a13.7 13.7 0 0 1 27.5 0z" transform="rotate(-68 179.7 364.5)"/>
      <path id="seat032" d="M158.5 348.7V366H131v-17.3a13.7 13.7 0 0 1 27.5 0z" transform="rotate(-68 144.7 350.5)"/>
      <path id="seat033" d="M122.5 333.7V351H95v-17.3a13.7 13.7 0 0 1 27.5 0z" transform="rotate(-68 108.7 335.5)"/>
      <path id="seat034" d="M86.5 319.7V337H59v-17.3a13.7 13.7 0 0 1 27.5 0z" transform="rotate(-68 72.7 321.5)"/>
      <path id="seat035" d="M51.5 305.7V323H24v-17.3a13.7 13.7 0 0 1 27.5 0z" transform="rotate(-68 37.7 307.5)"/>
      <path id="seat036" d="M205.5 334.7V352H178v-17.3a13.7 13.7 0 0 1 27.5 0z" transform="rotate(-68 191.7 336.5)"/>
      <path id="seat037" d="M169.5 319.7V337H142v-17.3a13.7 13.7 0 0 1 27.5 0z" transform="rotate(-68 155.7 321.5)"/>
      <path id="seat038" d="M133.5 305.7V323H106v-17.3a13.7 13.7 0 0 1 27.5 0z" transform="rotate(-68 119.7 307.5)"/>
      <path id="seat039" d="M98.5 291.7V309H71v-17.3a13.7 13.7 0 0 1 27.5 0z" transform="rotate(-68 84.7 293.5)"/>
      <path id="seat040" d="M62.5 276.7V294H35v-17.3a13.7 13.7 0 0 1 27.5 0z" transform="rotate(-68 48.7 278.5)"/>
      <path id="seat041" d="M155.9 266.6V284h-27.4v-17.4a13.7 13.7 0 0 1 27.4 0z" transform="rotate(-57 142.2 268.4)"/>
      <path id="seat042" d="M116.5 258.7V276H89v-17.3a13.7 13.7 0 0 1 27.5 0z" transform="rotate(-57 102.7 260.5)"/>
      <path id="seat043" d="M84.5 238.7V256H57v-17.3a13.7 13.7 0 0 1 27.5 0z" transform="rotate(-57 70.7 240.5)"/>
      <path id="seat044" d="M132.5 233.7V251H105v-17.3a13.7 13.7 0 0 1 27.5 0z" transform="rotate(-57 118.7 235.5)"/>
      <path id="seat045" d="M101.5 212.7V230H74v-17.3a13.7 13.7 0 0 1 27.5 0z" transform="rotate(-57 87.7 214.5)"/>
      <path id="seat046" d="M232.5 282.7V300H205v-17.3a13.7 13.7 0 0 1 27.5 0z" transform="rotate(-44 218.7 284.5)"/>
      <path id="seat047" d="M207.5 255.7V273H180v-17.3a13.7 13.7 0 0 1 27.5 0z" transform="rotate(-44 193.7 257.5)"/>
      <path id="seat048" d="M180.5 228.7V246H153v-17.3a13.7 13.7 0 0 1 27.5 0z" transform="rotate(-44 166.7 230.5)"/>
      <path id="seat049" d="M154.5 201.7V219H127v-17.3a13.7 13.7 0 0 1 27.5 0z" transform="rotate(-44 140.7 203.5)"/>
      <path id="seat050" d="M129.5 174.7V192H102v-17.3a13.7 13.7 0 0 1 27.5 0z" transform="rotate(-44 115.7 176.5)"/>
      <path id="seat051" d="M255.5 260.7V278H228v-17.3a13.7 13.7 0 0 1 27.5 0z" transform="rotate(-44 241.7 262.5)"/>
      <path id="seat052" d="M229.5 233.7V251H202v-17.3a13.7 13.7 0 0 1 27.5 0z" transform="rotate(-44 215.7 235.5)"/>
      <path id="seat053" d="M203.5 207.7V225H176v-17.3a13.7 13.7 0 0 1 27.5 0z" transform="rotate(-44 189.7 209.5)"/>
      <path id="seat054" d="M177.5 179.7V197H150v-17.3a13.7 13.7 0 0 1 27.5 0z" transform="rotate(-44 163.7 181.5)"/>
      <path id="seat055" d="M151.5 152.7V170H124v-17.3a13.7 13.7 0 0 1 27.5 0z" transform="rotate(-44 137.7 154.5)"/>
      <path id="seat056" d="M125.5 125.7V143H98v-17.3a13.7 13.7 0 0 1 27.5 0z" transform="rotate(-44 111.7 127.5)"/>
      <path id="seat057" d="M239.9 179.2v17.3h-27.5v-17.3a13.7 13.7 0 0 1 27.5 0z" transform="rotate(-34 226.1 181)"/>
      <path id="seat058" d="M205.5 156.7V174H178v-17.3a13.7 13.7 0 0 1 27.5 0z" transform="rotate(-34 191.7 158.5)"/>
      <path id="seat059" d="M184.5 124.7V142H157v-17.3a13.7 13.7 0 0 1 27.5 0z" transform="rotate(-34 170.7 126.5)"/>
      <path id="seat060" d="M163.5 92.7V110H136V92.7a13.7 13.7 0 1 1 27.5 0z" transform="rotate(-34 149.7 94.5)"/>
      <path id="seat061" d="M231.5 138.7V156H204v-17.3a13.7 13.7 0 0 1 27.5 0z" transform="rotate(-34 217.7 140.5)"/>
      <path id="seat062" d="M210.5 106.7V124H183v-17.3a13.7 13.7 0 0 1 27.5 0z" transform="rotate(-34 196.7 108.5)"/>
      <path id="seat063" d="M309.5 228.7V246H282v-17.3a13.7 13.7 0 0 1 27.5 0z" transform="rotate(-24 295.7 230.5)"/>
      <path id="seat064" d="M293.5 193.7V211H266v-17.3a13.7 13.7 0 0 1 27.5 0z" transform="rotate(-24 279.7 195.5)"/>
      <path id="seat065" d="M278.5 158.7V176H251v-17.3a13.7 13.7 0 0 1 27.5 0z" transform="rotate(-24 264.7 160.5)"/>
      <path id="seat066" d="M262.5 122.7V140H235v-17.3a13.7 13.7 0 0 1 27.5 0z" transform="rotate(-24 248.7 124.5)"/>
      <path id="seat067" d="M246.5 87.7V105H219V87.7a13.7 13.7 0 1 1 27.5 0z" transform="rotate(-24 232.7 89.5)"/>
      <path id="seat068" d="M230.5 52.7V70H203V52.7a13.7 13.7 0 1 1 27.5 0z" transform="rotate(-24 216.7 54.5)"/>
      <path id="seat069" d="M337.5 215.7V233H310v-17.3a13.7 13.7 0 0 1 27.5 0z" transform="rotate(-24 323.7 217.5)"/>
      <path id="seat070" d="M321.5 180.7V198H294v-17.3a13.7 13.7 0 0 1 27.5 0z" transform="rotate(-24 307.7 182.5)"/>
      <path id="seat071" d="M306.5 145.7V163H279v-17.3a13.7 13.7 0 0 1 27.5 0z" transform="rotate(-24 292.7 147.5)"/>
      <path id="seat072" d="M290.5 110.7V128H263v-17.3a13.7 13.7 0 0 1 27.5 0z" transform="rotate(-24 276.7 112.5)"/>
      <path id="seat073" d="M274.5 74.7V92H247V74.7a13.7 13.7 0 1 1 27.5 0z" transform="rotate(-24 260.7 76.5)"/>
      <path id="seat074" d="M259.5 40.7V58H232V40.7a13.7 13.7 0 1 1 27.5 0z" transform="rotate(-24 245.7 42.5)"/>
      <path id="seat075" d="M347.2 135.5v17.3h-27.5v-17.3a13.7 13.7 0 0 1 27.5 0z" transform="rotate(-10 333.5 137.3)"/>
      <path id="seat076" d="M325.5 99.7V117H298V99.7a13.7 13.7 0 1 1 27.5 0z" transform="rotate(-10 311.7 101.5)"/>
      <path id="seat077" d="M318.5 61.7V79H291V61.7a13.7 13.7 0 1 1 27.5 0z" transform="rotate(-10 304.7 63.5)"/>
      <path id="seat078" d="M355.5 94.7V112H328V94.7a13.7 13.7 0 1 1 27.5 0z" transform="rotate(-10 341.7 96.5)"/>
      <path id="seat079" d="M348.5 56.7V74H321V56.7a13.7 13.7 0 1 1 27.5 0z" transform="rotate(-10 334.7 58.5)"/>
      <path id="seat080" d="M392.5 206.7V224H365v-17.3a13.7 13.7 0 0 1 27.5 0z"/>
      <path id="seat081" d="M392.5 168.7V186H365v-17.3a13.7 13.7 0 0 1 27.5 0z"/>
      <path id="seat082" d="M392.5 129.7V147H365v-17.3a13.7 13.7 0 0 1 27.5 0z"/>
      <path id="seat083" d="M392.5 90.7V108H365V90.7a13.7 13.7 0 1 1 27.5 0z"/>
      <path id="seat084" d="M392.5 52.7V70H365V52.7a13.7 13.7 0 1 1 27.5 0z"/>
      <path id="seat085" d="M392.5 13.7V31H365V13.7a13.7 13.7 0 1 1 27.5 0z"/>
      <path id="seat086" d="M423 13.7V31h-27.5V13.7a13.7 13.7 0 0 1 27.5 0z" transform="matrix(-1 0 0 1 818.5 0)"/>
      <path id="seat087" d="M423 52.7V70h-27.5V52.7a13.7 13.7 0 0 1 27.5 0z" transform="matrix(-1 0 0 1 818.5 0)"/>
      <path id="seat088" d="M423 90.7V108h-27.5V90.7a13.7 13.7 0 0 1 27.5 0z" transform="matrix(-1 0 0 1 818.5 0)"/>
      <path id="seat089" d="M423 129.7V147h-27.5v-17.3a13.7 13.7 0 0 1 27.5 0z" transform="matrix(-1 0 0 1 818.5 0)"/>
      <path id="seat090" d="M423 168.7V186h-27.5v-17.3a13.7 13.7 0 0 1 27.5 0z" transform="matrix(-1 0 0 1 818.5 0)"/>
      <path id="seat091" d="M423 206.7V224h-27.5v-17.3a13.7 13.7 0 0 1 27.5 0z" transform="matrix(-1 0 0 1 818.5 0)"/>
      <path id="seat092" d="M467 56.7V74h-27.5V56.7a13.7 13.7 0 0 1 27.5 0z" transform="scale(-1 1) rotate(-10 0 5239.5)"/>
      <path id="seat093" d="M460 94.7V112h-27.5V94.7a13.7 13.7 0 0 1 27.5 0z" transform="scale(-1 1) rotate(-10 0 5197.5)"/>
      <path id="seat094" d="M497 61.7V79h-27.5V61.7a13.7 13.7 0 0 1 27.5 0z" transform="scale(-1 1) rotate(-10 0 5587.4)"/>
      <path id="seat095" d="M490 99.7V117h-27.5V99.7a13.7 13.7 0 0 1 27.5 0z" transform="scale(-1 1) rotate(-10 0 5545.4)"/>
      <path id="seat096" d="M468.3 135.5v17.3h-27.5v-17.3a13.7 13.7 0 0 1 27.5 0z" transform="scale(-1 1) rotate(-10 0 5332.6)"/>
      <path id="seat097" d="M556 40.7V58h-27.5V40.7a13.7 13.7 0 0 1 27.5 0z" transform="scale(-1 1) rotate(-24 0 2593.7)"/>
      <path id="seat098" d="M541 74.7V92h-27.5V74.7a13.7 13.7 0 0 1 27.5 0z" transform="scale(-1 1) rotate(-24 0 2557.1)"/>
      <path id="seat099" d="M525 110.7V128h-27.5v-17.3a13.7 13.7 0 0 1 27.5 0z" transform="scale(-1 1) rotate(-24 0 2517.9)"/>
      <path id="seat100" d="M509 145.7V163h-27.5v-17.3a13.7 13.7 0 0 1 27.5 0z" transform="scale(-1 1) rotate(-24 0 2477.6)"/>
      <path id="seat101" d="M494 180.7V198h-27.5v-17.3a13.7 13.7 0 0 1 27.5 0z" transform="scale(-1 1) rotate(-24 0 2442)"/>
      <path id="seat102" d="M478 215.7V233h-27.5v-17.3a13.7 13.7 0 0 1 27.5 0z" transform="scale(-1 1) rotate(-24 0 2401.8)"/>
      <path id="seat103" d="M585 52.7V70h-27.5V52.7a13.7 13.7 0 0 1 27.5 0z" transform="scale(-1 1) rotate(-24 0 2742.2)"/>
      <path id="seat104" d="M569 87.7V105h-27.5V87.7a13.7 13.7 0 0 1 27.5 0z" transform="scale(-1 1) rotate(-24 0 2701.9)"/>
      <path id="seat105" d="M553 122.7V140h-27.5v-17.3a13.7 13.7 0 0 1 27.5 0z" transform="scale(-1 1) rotate(-24 0 2661.6)"/>
      <path id="seat106" d="M537 158.7V176h-27.5v-17.3a13.7 13.7 0 0 1 27.5 0z" transform="scale(-1 1) rotate(-24 0 2622.3)"/>
      <path id="seat107" d="M522 193.7V211h-27.5v-17.3a13.7 13.7 0 0 1 27.5 0z" transform="scale(-1 1) rotate(-24 0 2586.8)"/>
      <path id="seat108" d="M506 228.7V246h-27.5v-17.3a13.7 13.7 0 0 1 27.5 0z" transform="scale(-1 1) rotate(-24 0 2546.5)"/>
      <path id="seat109" d="M605 106.7V124h-27.5v-17.3a13.7 13.7 0 0 1 27.5 0z" transform="scale(-1 1) rotate(-34 0 2042.5)"/>
      <path id="seat110" d="M584 138.7V156h-27.5v-17.3a13.7 13.7 0 0 1 27.5 0z" transform="scale(-1 1) rotate(-34 0 2005.8)"/>
      <path id="seat111" d="M652 92.7V110h-27.5V92.7a13.7 13.7 0 0 1 27.5 0z" transform="scale(-1 1) rotate(-34 0 2182.2)"/>
      <path id="seat112" d="M631 124.7V142h-27.5v-17.3a13.7 13.7 0 0 1 27.5 0z" transform="scale(-1 1) rotate(-34 0 2145.5)"/>
      <path id="seat113" d="M610 156.7V174h-27.5v-17.3a13.7 13.7 0 0 1 27.5 0z" transform="scale(-1 1) rotate(-34 0 2108.8)"/>
      <path id="seat114" d="M575.6 179.2v17.3H548v-17.3a13.7 13.7 0 0 1 27.5 0z" transform="scale(-1 1) rotate(-34 0 2018.8)"/>
      <path id="seat115" d="M690 125.7V143h-27.5v-17.3a13.7 13.7 0 0 1 27.5 0z" transform="scale(-1 1) rotate(-44 0 1801.4)"/>
      <path id="seat116" d="M664 152.7V170h-27.5v-17.3a13.7 13.7 0 0 1 27.5 0z" transform="scale(-1 1) rotate(-44 0 1764)"/>
      <path id="seat117" d="M638 179.7V197h-27.5v-17.3a13.7 13.7 0 0 1 27.5 0z" transform="scale(-1 1) rotate(-44 0 1726.7)"/>
      <path id="seat118" d="M612 207.7V225h-27.5v-17.3a13.7 13.7 0 0 1 27.5 0z" transform="scale(-1 1) rotate(-44 0 1690.3)"/>
      <path id="seat119" d="M586 233.7V251h-27.5v-17.3a13.7 13.7 0 0 1 27.5 0z" transform="scale(-1 1) rotate(-44 0 1652)"/>
      <path id="seat120" d="M560 260.7V278h-27.5v-17.3a13.7 13.7 0 0 1 27.5 0z" transform="scale(-1 1) rotate(-44 0 1614.6)"/>
      <path id="seat121" d="M686 174.7V192h-27.5v-17.3a13.7 13.7 0 0 1 27.5 0z" transform="scale(-1 1) rotate(-44 0 1840.5)"/>
      <path id="seat122" d="M661 201.7V219h-27.5v-17.3a13.7 13.7 0 0 1 27.5 0z" transform="scale(-1 1) rotate(-44 0 1805.6)"/>
      <path id="seat123" d="M635 228.7V246h-27.5v-17.3a13.7 13.7 0 0 1 27.5 0z" transform="scale(-1 1) rotate(-44 0 1768.2)"/>
      <path id="seat124" d="M608 255.7V273h-27.5v-17.3a13.7 13.7 0 0 1 27.5 0z" transform="scale(-1 1) rotate(-44 0 1728.4)"/>
      <path id="seat125" d="M583 282.7V300h-27.5v-17.3a13.7 13.7 0 0 1 27.5 0z" transform="scale(-1 1) rotate(-44 0 1693.5)"/>
      <path id="seat126" d="M715 211.7V229h-27.5v-17.3a13.7 13.7 0 0 1 27.5 0z" transform="scale(-1 1) rotate(-57 0 1505.1)"/>
      <path id="seat127" d="M732 237.7V255h-27.5v-17.3a13.7 13.7 0 0 1 27.5 0z" transform="scale(-1 1) rotate(-57 0 1562.4)"/>
      <path id="seat128" d="M692 245.7V263h-27.5v-17.3a13.7 13.7 0 0 1 27.5 0z" transform="scale(-1 1) rotate(-57 0 1496.7)"/>
      <path id="seat129" d="M661 265.7V283h-27.5v-17.3a13.7 13.7 0 0 1 27.5 0z" transform="scale(-1 1) rotate(-57 0 1459.6)"/>
      <path id="seat130" d="M753 276.7V294h-27.5v-17.3a13.7 13.7 0 0 1 27.5 0z" transform="scale(-1 1) rotate(-68 0 1374.5)"/>
      <path id="seat131" d="M717 291.7V309h-27.5v-17.3a13.7 13.7 0 0 1 27.5 0z" transform="scale(-1 1) rotate(-68 0 1336.2)"/>
      <path id="seat132" d="M682 305.7V323h-27.5v-17.3a13.7 13.7 0 0 1 27.5 0z" transform="scale(-1 1) rotate(-68 0 1298.3)"/>
      <path id="seat133" d="M646 319.7V337h-27.5v-17.3a13.7 13.7 0 0 1 27.5 0z" transform="scale(-1 1) rotate(-68 0 1258.9)"/>
      <path id="seat134" d="M610 334.7V352h-27.5v-17.3a13.7 13.7 0 0 1 27.5 0z" transform="scale(-1 1) rotate(-68 0 1220.5)"/>
      <path id="seat135" d="M764 305.7V323h-27.5v-17.3a13.7 13.7 0 0 1 27.5 0z" transform="scale(-1 1) rotate(-68 0 1419.8)"/>
      <path id="seat136" d="M729 319.7V337h-27.5v-17.3a13.7 13.7 0 0 1 27.5 0z" transform="scale(-1 1) rotate(-68 0 1382)"/>
      <path id="seat137" d="M693 333.7V351h-27.5v-17.3a13.7 13.7 0 0 1 27.5 0z" transform="scale(-1 1) rotate(-68 0 1342.6)"/>
      <path id="seat138" d="M657 348.7V366h-27.5v-17.3a13.7 13.7 0 0 1 27.5 0z" transform="scale(-1 1) rotate(-68 0 1304.2)"/>
      <path id="seat139" d="M622 362.7V380h-27.5v-17.3a13.7 13.7 0 0 1 27.5 0z" transform="scale(-1 1) rotate(-68 0 1266.3)"/>
      <path id="seat140" d="M779 345.7V363h-27.5v-17.3a13.7 13.7 0 0 1 27.5 0z" transform="scale(-1 1) rotate(-81 0 1243.5)"/>
      <path id="seat141" d="M741 351.7V369h-27.5v-17.3a13.7 13.7 0 0 1 27.5 0z" transform="scale(-1 1) rotate(-81 0 1205)"/>
      <path id="seat142" d="M784 374.7V392h-27.5v-17.3a13.7 13.7 0 0 1 27.5 0z" transform="scale(-1 1) rotate(-81 0 1278.4)"/>
      <path id="seat143" d="M746 380.7V398h-27.5v-17.3a13.7 13.7 0 0 1 27.5 0z" transform="scale(-1 1) rotate(-81 0 1239.9)"/>
      <path id="seat144" d="M706 372.2v17.3h-27.4v-17.3a13.7 13.7 0 1 1 27.5 0z" transform="scale(-1 1) rotate(-81 0 1184.6)"/>
      <path id="seat145" d="M783 416.7V434h-27.5v-17.3a13.7 13.7 0 0 1 27.5 0z" transform="matrix(0 -1 -1 0 1187.8 1187.8)"/>
      <path id="seat146" d="M745 416.7V434h-27.5v-17.3a13.7 13.7 0 0 1 27.5 0z" transform="matrix(0 -1 -1 0 1149.8 1149.8)"/>
      <path id="seat147" d="M706 416.7V434h-27.5v-17.3a13.7 13.7 0 0 1 27.5 0z" transform="matrix(0 -1 -1 0 1110.8 1110.8)"/>
      <path id="seat148" d="M668 416.7V434h-27.5v-17.3a13.7 13.7 0 0 1 27.5 0z" transform="matrix(0 -1 -1 0 1072.8 1072.8)"/>
      <path id="seat149" d="M629 416.7V434h-27.5v-17.3a13.7 13.7 0 0 1 27.5 0z" transform="matrix(0 -1 -1 0 1033.8 1033.8)"/>
      <path id="seat150" d="M783 446.7V464h-27.5v-17.3a13.7 13.7 0 0 1 27.5 0z" transform="matrix(0 -1 -1 0 1217.8 1217.8)"/>
      <path id="seat151" d="M745 446.7V464h-27.5v-17.3a13.7 13.7 0 0 1 27.5 0z" transform="matrix(0 -1 -1 0 1179.8 1179.8)"/>
      <path id="seat152" d="M706 446.7V464h-27.5v-17.3a13.7 13.7 0 0 1 27.5 0z" transform="matrix(0 -1 -1 0 1140.8 1140.8)"/>
      <path id="seat153" d="M668 446.7V464h-27.5v-17.3a13.7 13.7 0 0 1 27.5 0z" transform="matrix(0 -1 -1 0 1102.8 1102.8)"/>
      <path id="seat154" d="M629 446.7V464h-27.5v-17.3a13.7 13.7 0 0 1 27.5 0z" transform="matrix(0 -1 -1 0 1063.8 1063.8)"/>
      <path id="seat155" d="M783 490.7V508h-27.5v-17.3a13.7 13.7 0 0 1 27.5 0z" transform="matrix(0 -1 -1 0 1261.8 1261.8)"/>
      <path id="seat156" d="M745 490.7V508h-27.5v-17.3a13.7 13.7 0 0 1 27.5 0z" transform="matrix(0 -1 -1 0 1223.8 1223.8)"/>
      <path id="seat157" d="M706 490.7V508h-27.5v-17.3a13.7 13.7 0 0 1 27.5 0z" transform="matrix(0 -1 -1 0 1184.8 1184.8)"/>
      <path id="seat158" d="M668 490.7V508h-27.5v-17.3a13.7 13.7 0 0 1 27.5 0z" transform="matrix(0 -1 -1 0 1146.8 1146.8)"/>
      <path id="seat159" d="M629 490.7V508h-27.5v-17.3a13.7 13.7 0 0 1 27.5 0z" transform="matrix(0 -1 -1 0 1107.8 1107.8)"/>
      <path id="seat160" d="M783 520.7V538h-27.5v-17.3a13.7 13.7 0 0 1 27.5 0z" transform="matrix(0 -1 -1 0 1291.8 1291.8)"/>
      <path id="seat161" d="M745 520.7V538h-27.5v-17.3a13.7 13.7 0 0 1 27.5 0z" transform="matrix(0 -1 -1 0 1253.8 1253.8)"/>
      <path id="seat162" d="M706 520.7V538h-27.5v-17.3a13.7 13.7 0 0 1 27.5 0z" transform="matrix(0 -1 -1 0 1214.8 1214.8)"/>
      <path id="seat163" d="M668 520.7V538h-27.5v-17.3a13.7 13.7 0 0 1 27.5 0z" transform="matrix(0 -1 -1 0 1176.8 1176.8)"/>
      <path id="seat164" d="M629 520.7V538h-27.5v-17.3a13.7 13.7 0 0 1 27.5 0z" transform="matrix(0 -1 -1 0 1137.8 1137.8)"/>
      <path id="seat165" d="M783 568.7V586h-27.5v-17.3a13.7 13.7 0 0 1 27.5 0z" transform="matrix(0 -1 -1 0 1339.8 1339.8)"/>
      <path id="seat166" d="M744.5 568.7V586H717v-17.3a13.7 13.7 0 0 1 27.5 0z" transform="matrix(0 -1 -1 0 1301.3 1301.3)"/>
      <path id="seat167" d="M706 568.7V586h-27.5v-17.3a13.7 13.7 0 0 1 27.5 0z" transform="matrix(0 -1 -1 0 1262.8 1262.8)"/>
      <path id="seat168" d="M667.5 568.7V586H640v-17.3a13.7 13.7 0 0 1 27.5 0z" transform="matrix(0 -1 -1 0 1224.3 1224.3)"/>
      <path id="seat169" d="M629 568.7V586h-27.5v-17.3a13.7 13.7 0 0 1 27.5 0z" transform="matrix(0 -1 -1 0 1185.8 1185.8)"/>
    </g>
    <g id="ministers" fill="#CCC" transform="translate(193 232)">
      <path id="minister01" d="M30.2 338v17.2H2.8V338a13.7 13.7 0 0 1 27.4 0z" transform="rotate(-90 16.5 339.7)"/>
      <path id="minister02" d="M30 289.2v17.3H2.5v-17.3a13.7 13.7 0 1 1 27.5 0z" transform="rotate(-90 16.3 291)"/>
      <path id="minister03" d="M30 259.2v17.3H2.5v-17.3a13.7 13.7 0 1 1 27.5 0z" transform="rotate(-90 16.3 261)"/>
      <path id="minister04" d="M30 215.2v17.3H2.5v-17.3a13.7 13.7 0 1 1 27.5 0z" transform="rotate(-90 16.3 217)"/>
      <path id="minister05" d="M30 185.2v17.3H2.5v-17.3a13.7 13.7 0 1 1 27.5 0z" transform="rotate(-90 16.3 187)"/>
      <path id="minister06" d="M40.5 129.7V147H13v-17.3a13.7 13.7 0 0 1 27.5 0z" transform="rotate(-68 26.7 131.5)"/>
      <path id="minister07" d="M64.5 77.7V95H37V77.7a13.7 13.7 0 0 1 27.5 0z" transform="rotate(-44 50.7 79.5)"/>
      <path id="minister08" d="M87.5 55.7V73H60V55.7a13.7 13.7 0 0 1 27.5 0z" transform="rotate(-44 73.7 57.5)"/>
      <path id="minister09" d="M144 25.3v17.3h-27.4V25.3a13.7 13.7 0 0 1 27.5 0z" transform="rotate(-24 130.3 27)"/>
      <path id="minister10" d="M197.5 13.7V31H170V13.7a13.7 13.7 0 1 1 27.5 0z"/>
      <path id="minister11" d="M228 13.7V31h-27.5V13.7a13.7 13.7 0 0 1 27.5 0z" transform="matrix(-1 0 0 1 428.6 0)"/>
      <path id="minister12" d="M281.4 25.3v17.3h-27.5V25.3a13.7 13.7 0 1 1 27.5 0z" transform="scale(-1 1) rotate(-24 0 1286.3)"/>
      <path id="minister13" d="M338 55.7V73h-27.5V55.7a13.7 13.7 0 0 1 27.5 0z" transform="scale(-1 1) rotate(-44 0 860.1)"/>
      <path id="minister14" d="M361 77.7V95h-27.5V77.7a13.7 13.7 0 0 1 27.5 0z" transform="scale(-1 1) rotate(-44 0 939)"/>
      <path id="minister15" d="M385 129.7V147h-27.5v-17.3a13.7 13.7 0 0 1 27.5 0z" transform="scale(-1 1) rotate(-68 0 682)"/>
      <path id="minister16" d="M395.5 185.2v17.3H368v-17.3a13.7 13.7 0 1 1 27.5 0z" transform="matrix(0 -1 -1 0 568.7 568.7)"/>
      <path id="minister17" d="M395.5 215.2v17.3H368v-17.3a13.7 13.7 0 1 1 27.5 0z" transform="matrix(0 -1 -1 0 598.7 598.7)"/>
      <path id="minister18" d="M395.5 259.2v17.3H368v-17.3a13.7 13.7 0 1 1 27.5 0z" transform="matrix(0 -1 -1 0 642.7 642.7)"/>
      <path id="minister19" d="M395.2 289v17.2h-27.4V289a13.7 13.7 0 0 1 27.4 0z" transform="matrix(0 -1 -1 0 672.2 672.2)"/>
      <path id="minister20" d="M395.2 337v17.2h-27.4V337a13.7 13.7 0 0 1 27.4 0z" transform="matrix(0 -1 -1 0 720.2 720.2)"/>
    </g>
  </g>
</svg>
