<svg xmlns="http://www.w3.org/2000/svg" xmlns:xlink="http://www.w3.org/1999/xlink" version="1.1" x="0px" y="0px" viewBox="0 0 100 100" enable-background="new 0 0 100 100" xml:space="preserve"><g><path d="M84.35,57.35c-0.01-4.62-3.75-8.36-8.36-8.35l-42.11,0.02l-4.02-16.18c-1.93-8.25,3.22-16.53,11.47-18.45   c8.25-1.93,16.52,3.22,18.45,11.47l3.09,11.87c0.42,1.79,2.21,2.91,4.01,2.49l2.23-0.52c1.79-0.42,2.91-2.21,2.49-4l-3.09-11.88   C65.46,10.76,52.35,2.61,39.29,5.65C26.23,8.7,18.08,21.81,21.12,34.87l3.52,14.15h-0.65c-4.61,0.01-8.35,3.75-8.35,8.36   l0.01,29.28c0.01,4.62,3.75,8.36,8.36,8.36l52-0.03c4.61,0,8.35-3.75,8.35-8.36L84.35,57.35z"></path></g></svg>
